<svg width="256" height="256" xmlns="http://www.w3.org/2000/svg">
  <defs>
    <pattern id="wood" x="0" y="0" width="256" height="256" patternUnits="userSpaceOnUse">
      <rect width="256" height="256" fill="#8B4513"/>
      <!-- Planks: 256/8 = 32px height -->
      <rect x="0" y="0" width="256" height="32" fill="#A0522D" stroke="#5C3317" stroke-width="1"/>
      <rect x="0" y="32" width="256" height="32" fill="#8B4513" stroke="#5C3317" stroke-width="1"/>
      <rect x="0" y="64" width="256" height="32" fill="#A0522D" stroke="#5C3317" stroke-width="1"/>
      <rect x="0" y="96" width="256" height="32" fill="#8B4513" stroke="#5C3317" stroke-width="1"/>
      <rect x="0" y="128" width="256" height="32" fill="#A0522D" stroke="#5C3317" stroke-width="1"/>
      <rect x="0" y="160" width="256" height="32" fill="#8B4513" stroke="#5C3317" stroke-width="1"/>
      <rect x="0" y="192" width="256" height="32" fill="#A0522D" stroke="#5C3317" stroke-width="1"/>
      <rect x="0" y="224" width="256" height="32" fill="#8B4513" stroke="#5C3317" stroke-width="1"/>
      <!-- Grain details -->
      <path d="M10,16 Q50,0 90,16 T180,16" fill="none" stroke="#5C3317" stroke-width="0.5" opacity="0.5"/>
      <path d="M20,48 Q60,64 100,48 T190,48" fill="none" stroke="#5C3317" stroke-width="0.5" opacity="0.5"/>
      <path d="M15,80 Q55,64 95,80 T185,80" fill="none" stroke="#5C3317" stroke-width="0.5" opacity="0.5"/>
      <path d="M5,144 Q45,160 85,144 T175,144" fill="none" stroke="#5C3317" stroke-width="0.5" opacity="0.5"/>
      <path d="M25,208 Q65,192 105,208 T195,208" fill="none" stroke="#5C3317" stroke-width="0.5" opacity="0.5"/>
    </pattern>
  </defs>
  <rect width="256" height="256" fill="url(#wood)"/>
</svg>
